HIERARCHY
ROOT Hips
{
 OFFSET 0.000000 0.000000 0.000000
 CHANNELS 6 Xposition Yposition Zposition Yrotation Xrotation Zrotation
 JOINT Chest
 {
  OFFSET 0.000000 9.585900 0.002600
  CHANNELS 3 Yrotation Xrotation Zrotation
  JOINT Chest2
  {
   OFFSET 0.000000 9.601200 -0.005300
   CHANNELS 3 Yrotation Xrotation Zrotation
   JOINT Chest3
   {
    OFFSET 0.000000 9.561800 0.000000
    CHANNELS 3 Yrotation Xrotation Zrotation
    JOINT Chest4
    {
     OFFSET 0.000000 9.552100 0.000000
     CHANNELS 3 Yrotation Xrotation Zrotation
     JOINT Neck
     {
      OFFSET 0.000000 14.453000 0.000000
      CHANNELS 3 Yrotation Xrotation Zrotation
      JOINT Head
      {
       OFFSET 0.000000 8.936500 -0.011300
       CHANNELS 3 Yrotation Xrotation Zrotation
       End Site
       {
        OFFSET 0.000000 17.073600 -0.006000
       }
      }
     }
     JOINT RightCollar
     {
      OFFSET -2.921100 9.558500 0.000000
      CHANNELS 3 Yrotation Xrotation Zrotation
      JOINT RightShoulder
      {
       OFFSET -13.519700 0.000000 0.000000
       CHANNELS 3 Yrotation Xrotation Zrotation
       JOINT RightElbow
       {
        OFFSET 0.000000 -29.696600 0.000000
        CHANNELS 3 Yrotation Xrotation Zrotation
        JOINT RightWrist
        {
         OFFSET 0.000000 -24.004700 0.000000
         CHANNELS 3 Yrotation Xrotation Zrotation
         End Site
         {
          OFFSET 0.000000 -17.728500 0.000000
         }
        }
       }
      }
     }
     JOINT LeftCollar
     {
      OFFSET 2.921100 9.558500 0.000000
      CHANNELS 3 Yrotation Xrotation Zrotation
      JOINT LeftShoulder
      {
       OFFSET 13.519700 0.000000 0.000000
       CHANNELS 3 Yrotation Xrotation Zrotation
       JOINT LeftElbow
       {
        OFFSET 0.000000 -29.696600 0.000000
        CHANNELS 3 Yrotation Xrotation Zrotation
        JOINT LeftWrist
        {
         OFFSET 0.000000 -24.004700 0.000000
         CHANNELS 3 Yrotation Xrotation Zrotation
         End Site
         {
          OFFSET 0.000000 -17.728500 0.000000
         }
        }
       }
      }
     }
    }
   }
  }
 }
 JOINT RightHip
 {
  OFFSET -7.771700 -0.012900 -0.001300
  CHANNELS 3 Yrotation Xrotation Zrotation
  JOINT RightKnee
  {
   OFFSET 0.000000 -40.869800 0.001200
   CHANNELS 3 Yrotation Xrotation Zrotation
   JOINT RightAnkle
   {
    OFFSET 0.000000 -39.717900 0.002100
    CHANNELS 3 Yrotation Xrotation Zrotation
    JOINT RightToe
    {
     OFFSET 0.000000 -4.965400 11.033500
     CHANNELS 3 Yrotation Xrotation Zrotation
     End Site
     {
      OFFSET 0.000000 -1.423100 5.872300
     }
    }
   }
  }
 }
 JOINT LeftHip
 {
  OFFSET 7.771700 -0.012900 -0.001300
  CHANNELS 3 Yrotation Xrotation Zrotation
  JOINT LeftKnee
  {
   OFFSET 0.000000 -40.869800 0.001200
   CHANNELS 3 Yrotation Xrotation Zrotation
   JOINT LeftAnkle
   {
    OFFSET 0.000000 -39.717900 0.002100
    CHANNELS 3 Yrotation Xrotation Zrotation
    JOINT LeftToe
    {
     OFFSET 0.000000 -4.965400 11.033500
     CHANNELS 3 Yrotation Xrotation Zrotation
     End Site
     {
      OFFSET 0.000000 -1.423100 5.872300
     }
    }
   }
  }
 }
}
MOTION
Frames: 15
Frame Time: 0.008333
0.000000 85.388000 0.000000 0.000000 -5.767877 0.000000 0.000000 11.653817 0.000000 0.000000 -5.885947 0.000000 0.000000 -0.000000 0.000000 0.000000 -0.000000 0.000000 0.000000 12.528835 0.000000 0.000000 0.711642 0.000000 0.000000 -0.000000 0.000000 0.000000 0.000000 -90.000000 0.000000 -2.309062 0.000000 0.000000 2.309062 0.000000 0.000000 -0.000000 0.000000 0.000000 -0.000000 90.000000 0.000000 -2.309062 0.000000 0.000000 2.309062 0.000000 0.000000 8.520406 0.000000 0.000000 1.905762 0.000000 -0.000000 -4.658285 0.000000 0.000000 -0.000000 0.000000 0.000000 8.520406 0.000000 0.000000 1.905762 0.000000 -0.000000 -4.658285 0.000000 0.000000 -0.000000 0.000000
-42.611408 56.276691 -10.374735 -178.195873 -12.316893 -0.784248 -0.077097 13.630649 -0.454025 -0.003632 1.129038 0.014269 0.007253 1.921476 0.019707 0.077990 12.356350 0.129557 1.590834 14.390592 2.750576 1.070575 -10.571993 2.505031 0.173240 0.165994 1.322711 -0.237536 -7.218134 -6.200111 -77.583183 -59.184426 109.213012 -13.132684 4.471500 -3.010811 -5.621123 -1.791602 2.059882 2.765480 -10.562230 6.451408 61.020571 -51.442939 -101.742658 10.097516 -9.762219 11.136715 -3.217254 -62.802743 12.321659 -28.670061 85.317943 -32.376518 -10.138143 -17.544138 10.222309 0.111382 -0.339507 0.042996 17.789157 -57.643707 -21.384953 69.550253 71.184335 70.473041 -7.008337 -14.894671 0.976310 0.332731 0.787377 0.152829
-42.613000 56.276330 -10.374745 -178.201111 -12.319077 -0.778887 -0.066346 13.638000 -0.457980 -0.001184 1.128500 0.011915 0.017293 1.933144 0.018736 0.077746 12.355058 0.132260 1.600207 14.395636 2.748143 1.048897 -10.590323 2.517610 0.167366 0.156350 1.325875 -0.243223 -7.219517 -6.199338 -77.570381 -59.183867 109.205383 -13.136150 4.470724 -3.010794 -5.632568 -1.800794 2.076059 2.769038 -10.559067 6.449432 61.012313 -51.439119 -101.742426 10.095603 -9.767626 11.133774 -3.207839 -62.802882 12.312608 -28.705571 85.317794 -32.416991 -10.100512 -17.537654 10.221882 0.101810 -0.344844 0.042262 17.807798 -57.635368 -21.399441 69.543872 71.179733 70.467684 -6.999581 -14.901002 0.978965 0.322629 0.791768 0.150690
-42.614626 56.275826 -10.374552 -178.207196 -12.319843 -0.773871 -0.056572 13.644213 -0.461701 0.006754 1.136824 0.011173 0.011642 1.928014 0.019129 0.086848 12.360915 0.131299 1.595614 14.386922 2.751788 1.043511 -10.594315 2.520699 0.164358 0.146838 1.326332 -0.250928 -7.221350 -6.196328 -77.552147 -59.182955 109.193232 -13.133822 4.464041 -3.008941 -5.645551 -1.811142 2.089959 2.773833 -10.553180 6.450476 60.981504 -51.438439 -101.705266 10.095174 -9.769437 11.118417 -3.214715 -62.802889 12.317477 -28.743162 85.315386 -32.462328 -10.073272 -17.531515 10.218712 0.151094 -0.343486 0.047699 17.827779 -57.630809 -21.413724 69.540046 71.178323 70.467738 -6.996296 -14.901832 0.979487 0.319513 0.788940 0.148503
-42.614793 56.275278 -10.374454 -178.206227 -12.320249 -0.779684 -0.052858 13.648029 -0.456579 0.009699 1.138867 0.010454 0.012840 1.929957 0.018908 0.094568 12.366597 0.130665 1.593604 14.378534 2.754697 1.049817 -10.605000 2.521788 0.159130 0.138873 1.326353 -0.251258 -7.222260 -6.195434 -77.536956 -59.180713 109.182859 -13.131630 4.453638 -3.007798 -5.659398 -1.822543 2.099985 2.776809 -10.549446 6.452141 60.969799 -51.439235 -101.696274 10.095391 -9.750740 11.110627 -3.239416 -62.801462 12.341592 -28.809240 85.310145 -32.532446 -10.069182 -17.523299 10.223043 0.148220 -0.345393 0.046676 17.826033 -57.630911 -21.407989 69.528330 71.181517 70.466540 -7.008147 -14.902900 0.971092 0.335083 0.789110 0.153958
-42.614793 56.274656 -10.374198 -178.201287 -12.318634 -0.787846 -0.054716 13.647376 -0.449597 0.014662 1.141469 0.009147 0.015173 1.933818 0.017936 0.100260 12.372672 0.130600 1.592259 14.369066 2.757247 1.046793 -10.615576 2.525921 0.150984 0.129191 1.326075 -0.235851 -7.205315 -6.203744 -77.561840 -59.173480 109.206879 -13.127970 4.437507 -3.013520 -5.668520 -1.831357 2.115351 2.778307 -10.548942 6.447460 60.968299 -51.438653 -101.699988 10.093493 -9.735241 11.114238 -3.267713 -62.801077 12.361651 -28.781617 85.309468 -32.511597 -10.039730 -17.518333 10.224169 0.150999 -0.347025 0.046458 17.825360 -57.636158 -21.406136 69.536491 71.179170 70.480782 -7.014397 -14.896606 0.974155 0.336267 0.781376 0.151689
-42.615600 56.274562 -10.376396 -178.206661 -12.330999 -0.790041 -0.039308 13.663021 -0.446579 0.008175 1.139365 0.011079 0.020920 1.941127 0.013693 0.105190 12.378967 0.130764 1.591929 14.357455 2.761865 1.045410 -10.627542 2.530938 0.143975 0.116320 1.325261 -0.233342 -7.197899 -6.199630 -77.561482 -59.172161 109.211874 -13.123841 4.439763 -3.009842 -5.675654 -1.844473 2.139818 2.788151 -10.530806 6.447967 60.961511 -51.441001 -101.711558 10.099258 -9.742814 11.105333 -3.272069 -62.786934 12.373560 -28.791330 85.306479 -32.519895 -10.064945 -17.513618 10.229921 0.138890 -0.340774 0.050000 17.821460 -57.625558 -21.393642 69.561300 71.176152 70.505376 -7.019070 -14.901562 0.977185 0.335993 0.778446 0.149125
-42.615982 56.274411 -10.378211 -178.206325 -12.339338 -0.796587 -0.031954 13.677233 -0.441931 0.008451 1.140623 0.011040 0.021179 1.940645 0.011492 0.112132 12.387283 0.128256 1.594664 14.346491 2.769021 1.040862 -10.638459 2.538770 0.137038 0.104650 1.327064 -0.231354 -7.195414 -6.193809 -77.571090 -59.170750 109.218144 -13.120459 4.471088 -2.993839 -5.681290 -1.859349 2.158687 2.785037 -10.521505 6.455072 60.918732 -51.444104 -101.675119 10.108369 -9.766894 11.089547 -3.286575 -62.776975 12.386984 -28.814920 85.304401 -32.542822 -10.059497 -17.508130 10.229342 0.144106 -0.342220 0.051974 17.809823 -57.618537 -21.376893 69.570077 71.177189 70.515330 -7.022980 -14.908741 0.978229 0.338189 0.781085 0.148625
-42.615939 56.274150 -10.379292 -178.207214 -12.341491 -0.805949 -0.020571 13.684421 -0.439592 0.009019 1.141996 0.011022 0.015468 1.936454 0.018655 0.122191 12.399520 0.120921 1.595380 14.335489 2.778049 1.034094 -10.644458 2.545001 0.128364 0.094548 1.331407 -0.231094 -7.197983 -6.187269 -77.555481 -59.172822 109.207757 -13.118218 4.464586 -2.994939 -5.688026 -1.871578 2.178395 2.781205 -10.517161 6.465332 60.912402 -51.438344 -101.673416 10.115598 -9.763625 11.085720 -3.304273 -62.772637 12.407141 -28.823578 85.299165 -32.547788 -10.065281 -17.501351 10.226837 0.143844 -0.342391 0.054770 17.795508 -57.621732 -21.359883 69.581382 71.181542 70.526599 -7.011909 -14.908850 0.979841 0.333653 0.776347 0.146122
-42.618223 56.274064 -10.381058 -178.211436 -12.346653 -0.801328 -0.012510 13.695451 -0.449484 0.009670 1.143025 0.010737 0.016525 1.938283 0.018419 0.126506 12.401276 0.121898 1.597166 14.327668 2.784361 1.033361 -10.654589 2.553714 0.121509 0.086922 1.332942 -0.228178 -7.200227 -6.181038 -77.514709 -59.180056 109.183755 -13.115860 4.464519 -2.992598 -5.692618 -1.878795 2.194733 2.776365 -10.516628 6.472501 60.903642 -51.435669 -101.667058 10.115377 -9.757621 11.085284 -3.292097 -62.767554 12.397965 -28.824501 85.298372 -32.549133 -10.071800 -17.497145 10.229785 0.134024 -0.343432 0.054696 17.791883 -57.612396 -21.358625 69.579289 71.177137 70.520871 -7.004467 -14.917522 0.980243 0.328153 0.781554 0.144120
-42.619274 56.274087 -10.383058 -178.214859 -12.351526 -0.804533 -0.003140 13.703791 -0.451365 0.010327 1.144510 0.010577 0.017581 1.940575 0.018079 0.134171 12.407608 0.122278 1.595164 14.316025 2.792554 1.032548 -10.664802 2.562124 0.111048 0.075945 1.334465 -0.223529 -7.201246 -6.177142 -77.508960 -59.181178 109.182361 -13.113413 4.480177 -2.989066 -5.699579 -1.889956 2.210851 2.770553 -10.517221 6.472662 60.884775 -51.443084 -101.650248 10.110877 -9.740158 11.094409 -3.292427 -62.761959 12.399459 -28.802848 85.300453 -32.528728 -10.052565 -17.494052 10.231924 0.112265 -0.349502 0.050171 17.779786 -57.609180 -21.344521 69.589927 71.175003 70.529330 -7.002624 -14.920323 0.979791 0.327647 0.780500 0.143524
-42.620012 56.274180 -10.385098 -178.215887 -12.355338 -0.810080 0.003278 13.711105 -0.450218 0.015345 1.153232 0.006172 0.017082 1.939996 0.019281 0.144276 12.413497 0.124648 1.585770 14.299250 2.802170 1.033892 -10.686304 2.574681 0.096887 0.061220 1.335553 -0.216889 -7.206040 -6.175262 -77.503999 -59.182724 109.177580 -13.116909 4.486379 -2.989546 -5.709136 -1.906504 2.225027 2.761987 -10.514482 6.489439 60.876223 -51.440852 -101.650002 10.114075 -9.738630 11.095038 -3.293878 -62.755082 12.402031 -28.798546 85.297432 -32.524598 -10.034615 -17.496174 10.236597 0.138368 -0.343652 0.049614 17.766221 -57.608154 -21.329849 69.601261 71.174043 70.539523 -7.001650 -14.920889 0.982054 0.326813 0.777935 0.141309
-42.621397 56.274207 -10.386461 -178.213260 -12.354233 -0.812196 0.003744 13.716395 -0.453430 0.018033 1.154014 0.009558 0.014286 1.937689 0.018575 0.154780 12.422799 0.124747 1.579069 14.286377 2.806777 1.029503 -10.699324 2.582210 0.090140 0.048285 1.332561 -0.200854 -7.203626 -6.178775 -77.515617 -59.183236 109.178006 -13.117526 4.500092 -2.989960 -5.717064 -1.921443 2.236649 2.761716 -10.514286 6.513471 60.865187 -51.425556 -101.658041 10.116198 -9.740638 11.099009 -3.294441 -62.754455 12.400433 -28.820453 85.295134 -32.545679 -10.035522 -17.496404 10.243504 0.158720 -0.336012 0.052497 17.757899 -57.611337 -21.326016 69.608850 71.172392 70.546154 -7.003473 -14.915980 0.984093 0.327125 0.772558 0.141326
-42.622867 56.274236 -10.387309 -178.210388 -12.349651 -0.813548 0.007440 13.717927 -0.451602 0.015411 1.153193 0.009067 0.018566 1.941370 0.018752 0.157658 12.427997 0.122270 1.577471 14.273430 2.813107 1.018445 -10.712709 2.590652 0.088768 0.033038 1.330241 -0.206491 -7.202847 -6.175665 -77.499602 -59.186316 109.167609 -13.119410 4.499035 -2.991610 -5.727018 -1.938256 2.253922 2.761518 -10.510911 6.517481 60.861875 -51.418061 -101.661557 10.117312 -9.744045 11.100955 -3.296339 -62.757986 12.401408 -28.879284 85.290594 -32.604015 -10.045611 -17.494099 10.250150 0.173591 -0.334736 0.052060 17.747232 -57.619699 -21.321207 69.619981 71.171299 70.552876 -7.004786 -14.908550 0.983839 0.328445 0.765389 0.141242
-42.624594 56.274650 -10.389098 -178.221257 -12.351232 -0.810613 0.021470 13.725216 -0.452840 0.012911 1.149080 0.010107 0.027830 1.957798 0.013908 0.153730 12.417166 0.125419 1.578336 14.269314 2.816591 1.011121 -10.722068 2.595933 0.089630 0.024009 1.325569 -0.211418 -7.204111 -6.174734 -77.488447 -59.182008 109.158432 -13.119181 4.502474 -2.992609 -5.732487 -1.947479 2.264258 2.759514 -10.506570 6.522128 60.859858 -51.415664 -101.664298 10.110343 -9.723749 11.104669 -3.281602 -62.756219 12.400810 -28.986176 85.282547 -32.710829 -10.059648 -17.488195 10.256128 0.162788 -0.334324 0.054906 17.729903 -57.617191 -21.304742 69.620798 71.170739 70.549334 -7.000982 -14.919585 0.973711 0.332062 0.773834 0.144543
